<?xml version="1.0" standalone="no"?>
<!DOCTYPE svg PUBLIC "-//W3C//DTD SVG 20010904//EN"
 "http://www.w3.org/TR/2001/REC-SVG-20010904/DTD/svg10.dtd">
<svg version="1.0" xmlns="http://www.w3.org/2000/svg"
 width="277.000000pt" height="243.000000pt" viewBox="0 0 277.000000 243.000000"
 preserveAspectRatio="xMidYMid meet">

<g transform="translate(0.000000,243.000000) scale(0.100000,-0.100000)"
fill="currentColor" stroke="none">
<path d="M718 1508 l-3 -923 -25 -45 c-14 -24 -44 -58 -67 -75 -23 -16 -42
-33 -42 -37 -2 -12 100 -30 136 -23 85 16 153 72 183 152 19 52 20 79 20 963
l0 910 -100 0 -100 0 -2 -922z"/>
<path d="M1191 2404 c-38 -49 -42 -91 -36 -367 8 -364 -10 -320 276 -674 235
-290 507 -628 728 -903 246 -307 268 -332 315 -354 45 -21 121 -20 171 3 43
19 100 78 116 118 5 14 9 464 9 1114 l0 1089 -105 0 -105 0 -2 -1052 -3 -1053
-22 0 c-15 0 -54 41 -145 155 -68 85 -306 382 -528 659 -470 584 -485 603
-499 652 -6 20 -11 114 -11 214 l0 177 53 -68 c29 -38 138 -181 242 -319 104
-137 255 -336 335 -442 80 -105 215 -283 300 -396 l155 -204 3 155 c2 113 -1
160 -10 173 -11 15 -592 786 -915 1214 l-98 130 -102 3 c-99 3 -101 2 -122
-24z"/>
<path d="M1154 1047 c-2 -473 -2 -483 -24 -542 -64 -171 -200 -285 -374 -316
-87 -15 -184 0 -274 43 -80 38 -179 133 -215 208 -29 60 -57 172 -57 233 l0
37 -96 0 -97 0 6 -98 c14 -261 169 -471 429 -581 60 -25 72 -26 233 -26 161 0
173 1 233 26 98 42 168 88 239 158 75 75 123 153 161 260 l27 76 3 383 3 383
-96 119 c-53 66 -98 120 -98 120 -1 0 -3 -217 -3 -483z"/>
</g>
</svg>
